<svg xmlns="http://www.w3.org/2000/svg" width="1230" height="160" fill="none" viewBox="0 0 1230 160"><rect width="77" height="17" x="176" y="130" fill="#570A7B" rx="8.5"/><rect width="50" height="16" x="300" y="13" fill="#570A7B" rx="8"/><rect width="120" height="16" x="10" y="13" fill="#570A7B" rx="8"/><rect width="120" height="16" x="1100" y="131" fill="#570A7B" rx="8"/><rect width="99" height="16" x="410" y="131" fill="#570A7B" rx="8"/><rect width="99" height="16" x="591" y="13" fill="#570A7B" rx="8"/><rect width="56" height="16" x="837" y="23" fill="#570A7B" rx="8"/><rect width="45" height="16" x="964" y="131" fill="#570A7B" rx="8"/><rect width="119.262" height="16" x="710.224" y="135.56" fill="#570A7B" rx="8" transform="rotate(-33.2881 710.224 135.56)"/><path fill="#A613EB" d="M125.087 147.078C121.761 147.078 118.883 145.925 116.453 143.618C114.151 141.184 113 138.301 113 134.969V20.8022C113 18.3677 113.831 16.3175 115.494 14.6518C117.157 12.8579 119.203 11.961 121.633 11.961C124.063 11.961 126.11 12.8579 127.772 14.6518C129.563 16.3175 130.458 18.3677 130.458 20.8022V129.588H193.193C195.623 129.588 197.67 130.485 199.332 132.279C201.123 133.944 202.018 135.994 202.018 138.429C202.018 140.864 201.123 142.914 199.332 144.579C197.67 146.245 195.623 147.078 193.193 147.078H125.087Z"/><path fill="#A613EB" d="M262.382 149C253.301 149 244.54 147.078 236.099 143.234C227.657 139.39 220.751 133.56 215.379 125.744C210.007 117.799 207.321 108.125 207.321 96.7214V20.8022C207.321 18.3677 208.153 16.3175 209.815 14.6518C211.478 12.8579 213.524 11.961 215.954 11.961C218.385 11.961 220.431 12.8579 222.094 14.6518C223.884 16.3175 224.78 18.3677 224.78 20.8022V97.298C224.78 104.986 226.506 111.521 229.959 116.903C233.541 122.284 238.209 126.32 243.965 129.011C249.72 131.702 255.859 133.047 262.382 133.047C268.905 133.047 275.044 131.702 280.8 129.011C286.555 126.32 291.16 122.284 294.613 116.903C298.194 111.521 299.985 104.986 299.985 97.298V20.8022C299.985 18.3677 300.816 16.3175 302.479 14.6518C304.141 12.8579 306.188 11.961 308.618 11.961C311.048 11.961 313.094 12.8579 314.757 14.6518C316.548 16.3175 317.443 18.3677 317.443 20.8022V96.7214C317.443 108.125 314.757 117.799 309.385 125.744C304.014 133.56 297.107 139.39 288.666 143.234C280.224 147.078 271.463 149 262.382 149Z"/><path fill="#A613EB" d="M343.691 147.078C340.621 147.078 337.999 145.989 335.825 143.811C333.65 141.632 332.563 139.006 332.563 135.93C332.563 133.111 333.331 130.741 334.865 128.819L415.059 29.6435H341.196C338.894 29.6435 336.912 28.8747 335.249 27.337C333.714 25.6713 332.947 23.6852 332.947 21.3788C332.947 19.0724 333.714 17.0863 335.249 15.4206C336.912 13.7549 338.894 12.922 341.196 12.922H424.459C428.041 12.922 430.854 14.0752 432.901 16.3816C435.075 18.688 436.162 21.507 436.162 24.8384C436.162 26.1198 435.842 27.4652 435.203 28.8747C434.691 30.2841 433.988 31.5014 433.093 32.5265L353.859 130.741H429.064C431.366 130.741 433.284 131.574 434.819 133.24C436.482 134.777 437.313 136.699 437.313 139.006C437.313 141.312 436.482 143.234 434.819 144.772C433.284 146.309 431.366 147.078 429.064 147.078H343.691Z"/><path fill="#A613EB" d="M499.945 148.039C497.515 148.039 495.468 147.206 493.806 145.54C492.143 143.875 491.312 141.825 491.312 139.39V24.6462C491.312 21.1866 492.527 18.2395 494.957 15.805C497.387 13.2423 500.328 11.961 503.782 11.961H506.276C510.369 11.961 513.886 13.883 516.828 17.727L590.69 124.591V20.8022C590.69 18.3677 591.521 16.3175 593.184 14.6518C594.846 12.8579 596.893 11.961 599.323 11.961C601.753 11.961 603.799 12.8579 605.462 14.6518C607.253 16.3175 608.148 18.3677 608.148 20.8022V135.546C608.148 139.006 606.869 141.953 604.311 144.387C601.881 146.822 598.939 148.039 595.486 148.039H593.184C591.137 148.039 589.219 147.591 587.428 146.694C585.638 145.669 584.167 144.387 583.016 142.85L508.77 35.4095V139.39C508.77 141.825 507.875 143.875 506.084 145.54C504.421 147.206 502.375 148.039 499.945 148.039Z"/><path fill="#A613EB" d="M642.438 147.078C640.008 147.078 637.962 146.245 636.299 144.579C634.636 142.914 633.805 140.864 633.805 138.429V21.7632C633.805 19.3287 634.636 17.2786 636.299 15.6128C637.962 13.8189 640.008 12.922 642.438 12.922H719.37C721.672 12.922 723.591 13.7549 725.126 15.4206C726.788 16.9582 727.62 18.8802 727.62 21.1866C727.62 23.493 726.788 25.415 725.126 26.9526C723.591 28.4902 721.672 29.259 719.37 29.259H651.263V71.7354H712.464C714.766 71.7354 716.684 72.5682 718.219 74.234C719.882 75.7716 720.713 77.6936 720.713 80C720.713 82.3064 719.882 84.2284 718.219 85.766C716.684 87.3036 714.766 88.0724 712.464 88.0724H651.263V130.741H719.37C721.672 130.741 723.591 131.574 725.126 133.24C726.788 134.777 727.62 136.699 727.62 139.006C727.62 141.312 726.788 143.234 725.126 144.772C723.591 146.309 721.672 147.078 719.37 147.078H642.438Z"/><path fill="#A613EB" d="M802.606 149C789.432 149 777.729 146.117 767.497 140.351C757.265 134.457 749.336 126.32 743.708 115.942C738.081 105.435 735.267 93.5181 735.267 80.1922C735.267 66.61 738.208 54.5655 744.092 44.0585C749.975 33.5515 757.969 25.415 768.073 19.649C778.305 13.883 789.624 11 802.03 11C812.007 11 820.704 12.2173 828.122 14.6518C835.668 17.0863 842.894 20.4819 849.801 24.8384C850.824 25.351 851.72 26.2479 852.487 27.5292C853.254 28.8106 853.638 30.22 853.638 31.7577C853.638 33.9359 852.871 35.7939 851.336 37.3315C849.929 38.8691 848.01 39.6379 845.58 39.6379C844.173 39.6379 842.831 39.3175 841.552 38.6769C835.54 35.0891 829.529 32.3983 823.518 30.6045C817.506 28.8106 810.983 27.9136 803.949 27.9136C794.229 27.9136 785.467 29.9638 777.666 34.0641C769.864 38.1643 763.724 44.1866 759.248 52.1309C754.899 59.9471 752.725 69.3008 752.725 80.1922C752.725 90.1866 754.771 99.156 758.864 107.1C763.085 114.916 769.096 121.131 776.898 125.744C784.828 130.228 794.165 132.471 804.908 132.471C816.931 132.471 828.122 129.652 838.482 124.014V89.2256H806.827C804.652 89.2256 802.798 88.4568 801.263 86.9192C799.728 85.3816 798.961 83.5237 798.961 81.3454C798.961 79.1671 799.728 77.3092 801.263 75.7716C802.798 74.234 804.652 73.4652 806.827 73.4652H844.621C847.179 73.4652 849.353 74.3621 851.144 76.156C852.935 77.9499 853.83 80.1281 853.83 82.6908V126.32C853.83 129.011 853.126 131.446 851.72 133.624C850.441 135.674 848.714 137.212 846.54 138.237C832.215 145.412 817.57 149 802.606 149Z"/><path fill="#A613EB" d="M885.646 148.039C883.215 148.039 881.169 147.206 879.506 145.54C877.844 143.875 877.012 141.825 877.012 139.39V21.7632C877.012 19.3287 877.844 17.2786 879.506 15.6128C881.169 13.8189 883.215 12.922 885.646 12.922H930.346C947.741 12.922 960.787 16.5097 969.484 23.6852C978.181 30.8607 982.53 40.2785 982.53 51.9387C982.53 59.6267 980.355 66.6741 976.007 73.0808C971.786 79.3593 965.583 83.9081 957.397 86.727C966.606 89.1616 972.873 94.9276 976.199 104.025C979.652 112.994 981.379 121.836 981.379 130.549V139.39C981.379 141.825 980.547 143.875 978.885 145.54C977.222 147.206 975.175 148.039 972.745 148.039C970.059 148.039 967.885 147.27 966.222 145.733C964.688 144.067 963.92 141.953 963.92 139.39V133.624C963.92 127.217 963.345 121.323 962.194 115.942C961.043 110.432 958.293 105.563 953.944 101.334C949.595 96.9777 943.009 94.7994 934.183 94.7994H894.471V139.39C894.471 141.825 893.575 143.875 891.785 145.54C890.122 147.206 888.076 148.039 885.646 148.039ZM929.195 78.2702C940.195 78.2702 948.892 76.0919 955.287 71.7354C961.81 67.3788 965.071 61.2284 965.071 53.2841C965.071 45.5961 962.258 39.7019 956.63 35.6017C951.13 31.5014 941.666 29.4512 928.236 29.4512H894.471V78.2702H929.195Z"/><path fill="#A613EB" d="M1001.7 148.039C999.14 148.039 997.03 147.206 995.367 145.54C993.832 143.875 993.065 141.825 993.065 139.39C993.065 138.365 993.385 137.084 994.024 135.546L1042.95 19.8412C1043.97 17.5348 1045.38 15.6769 1047.17 14.2674C1049.09 12.7298 1051.39 11.961 1054.07 11.961H1055.99C1058.68 11.961 1060.92 12.7298 1062.71 14.2674C1064.62 15.6769 1066.1 17.5348 1067.12 19.8412L1116.04 135.546C1116.68 137.084 1117 138.365 1117 139.39C1117 141.825 1116.17 143.875 1114.51 145.54C1112.97 147.206 1110.92 148.039 1108.37 148.039C1106.58 148.039 1104.91 147.591 1103.38 146.694C1101.97 145.669 1100.88 144.323 1100.12 142.657L1087.65 112.674H1022.42L1009.95 142.657C1009.18 144.323 1008.03 145.669 1006.49 146.694C1005.09 147.591 1003.49 148.039 1001.7 148.039ZM1029.13 96.7214H1080.93L1055.03 34.2563L1029.13 96.7214Z"/></svg>