{
  "accessors": [
    {
      "bufferView": 0,
      "componentType": 5125,
      "count": 1662,
      "type": "SCALAR"
    },
    {
      "bufferView": 1,
      "componentType": 5126,
      "count": 619,
      "max": [
        0.203716978430748,
        0.450735926628113,
        0.401309967041016
      ],
      "min": [
        -0.201624974608421,
        -0.00020599365234375,
        -0.400014013051987
      ],
      "type": "VEC3"
    },
    {
      "bufferView": 2,
      "componentType": 5126,
      "count": 619,
      "type": "VEC3"
    },
    {
      "bufferView": 3,
      "componentType": 5126,
      "count": 619,
      "type": "VEC4"
    },
    {
      "bufferView": 4,
      "componentType": 5126,
      "count": 619,
      "type": "VEC2"
    }
  ],
  "asset": {
    "generator": "Adobe Substance 3D Painter 8.1.3",
    "version": "2.0"
  },
  "bufferViews": [
    {
      "buffer": 0,
      "byteLength": 6648,
      "target": 34963
    },
    {
      "buffer": 0,
      "byteLength": 7428,
      "byteOffset": 6648,
      "target": 34962
    },
    {
      "buffer": 0,
      "byteLength": 7428,
      "byteOffset": 14076,
      "target": 34962
    },
    {
      "buffer": 0,
      "byteLength": 9904,
      "byteOffset": 21504,
      "target": 34962
    },
    {
      "buffer": 0,
      "byteLength": 4952,
      "byteOffset": 31408,
      "target": 34962
    }
  ],
  "buffers": [
    {
      "byteLength": 36360,
      "uri": "auto_ine.bin"
    }
  ],
  "images": [
    {
      "uri": "Material_000_baseColor.png"
    },
    {
      "uri": "Material_000_occlusionRoughnessMetallic.png"
    },
    {
      "uri": "Material_000_emissive.png"
    }
  ],
  "materials": [
    {
      "alphaMode": "OPAQUE",
      "emissiveFactor": [
        1.0,
        1.0,
        1.0
      ],
      "emissiveTexture": {
        "index": 2
      },
      "name": "Material_000",
      "occlusionTexture": {
        "index": 1
      },
      "pbrMetallicRoughness": {
        "baseColorTexture": {
          "index": 0
        },
        "metallicRoughnessTexture": {
          "index": 1
        }
      }
    }
  ],
  "meshes": [
    {
      "name": "auto_ine_mesh_auto",
      "primitives": [
        {
          "attributes": {
            "NORMAL": 2,
            "POSITION": 1,
            "TANGENT": 3,
            "TEXCOORD_0": 4
          },
          "indices": 0,
          "material": 0,
          "mode": 4
        }
      ]
    }
  ],
  "nodes": [
    {
      "children": [
        1
      ],
      "name": "autocine_v02.obj"
    },
    {
      "children": [
        2
      ],
      "name": "auto_ine_mesh_auto"
    },
    {
      "mesh": 0,
      "name": "auto_ine_mesh_auto"
    }
  ],
  "samplers": [
    {
      "magFilter": 9729,
      "minFilter": 9985,
      "wrapS": 10497,
      "wrapT": 10497
    }
  ],
  "scene": 0,
  "scenes": [
    {
      "name": "Scene",
      "nodes": [
        0
      ]
    }
  ],
  "textures": [
    {
      "sampler": 0,
      "source": 0
    },
    {
      "sampler": 0,
      "source": 1
    },
    {
      "sampler": 0,
      "source": 2
    }
  ]
}