{
    "asset" : {
        "generator" : "Khronos glTF Blender I/O v3.2.40",
        "version" : "2.0"
    },
    "scene" : 0,
    "scenes" : [
        {
            "name" : "Scene",
            "nodes" : [
                0
            ]
        }
    ],
    "nodes" : [
        {
            "mesh" : 0,
            "name" : "auto_ine"
        }
    ],
    "materials" : [
        {
            "doubleSided" : true,
            "emissiveFactor" : [
                1,
                1,
                1
            ],
            "emissiveTexture" : {
                "index" : 0
            },
            "name" : "mat_auto",
            "pbrMetallicRoughness" : {
                "baseColorTexture" : {
                    "index" : 1
                },
                "metallicRoughnessTexture" : {
                    "index" : 2
                }
            }
        }
    ],
    "meshes" : [
        {
            "name" : "mesh_auto",
            "primitives" : [
                {
                    "attributes" : {
                        "POSITION" : 0,
                        "NORMAL" : 1,
                        "TEXCOORD_0" : 2,
                        "COLOR_0" : 3
                    },
                    "indices" : 4,
                    "material" : 0
                }
            ]
        }
    ],
    "textures" : [
        {
            "sampler" : 0,
            "source" : 0
        },
        {
            "sampler" : 1,
            "source" : 1
        },
        {
            "sampler" : 0,
            "source" : 2
        }
    ],
    "images" : [
        {
            "mimeType" : "image/png",
            "name" : "Material_000_emissive",
            "uri" : "Material_000_emissive.png"
        },
        {
            "mimeType" : "image/png",
            "name" : "Material_000_baseColor",
            "uri" : "Material_000_baseColor.png"
        },
        {
            "mimeType" : "image/png",
            "name" : "Material_000_occlusionRoughnessMetallic",
            "uri" : "Material_000_occlusionRoughnessMetallic.png"
        }
    ],
    "accessors" : [
        {
            "bufferView" : 0,
            "componentType" : 5126,
            "count" : 731,
            "max" : [
                0.20371678471565247,
                0.45073559880256653,
                0.4013097286224365
            ],
            "min" : [
                -0.20162513852119446,
                -0.0002060679835267365,
                -0.4000137150287628
            ],
            "type" : "VEC3"
        },
        {
            "bufferView" : 1,
            "componentType" : 5126,
            "count" : 731,
            "type" : "VEC3"
        },
        {
            "bufferView" : 2,
            "componentType" : 5126,
            "count" : 731,
            "type" : "VEC2"
        },
        {
            "bufferView" : 3,
            "componentType" : 5123,
            "count" : 731,
            "normalized" : true,
            "type" : "VEC4"
        },
        {
            "bufferView" : 4,
            "componentType" : 5123,
            "count" : 1797,
            "type" : "SCALAR"
        }
    ],
    "bufferViews" : [
        {
            "buffer" : 0,
            "byteLength" : 8772,
            "byteOffset" : 0
        },
        {
            "buffer" : 0,
            "byteLength" : 8772,
            "byteOffset" : 8772
        },
        {
            "buffer" : 0,
            "byteLength" : 5848,
            "byteOffset" : 17544
        },
        {
            "buffer" : 0,
            "byteLength" : 5848,
            "byteOffset" : 23392
        },
        {
            "buffer" : 0,
            "byteLength" : 3594,
            "byteOffset" : 29240
        }
    ],
    "samplers" : [
        {
            "magFilter" : 9729,
            "minFilter" : 9987
        },
        {
            "magFilter" : 9729,
            "minFilter" : 9987,
            "wrapS" : 33071,
            "wrapT" : 33071
        }
    ],
    "buffers" : [
        {
            "byteLength" : 32836,
            "uri" : "auto_ine_blender.bin"
        }
    ]
}
