{
  "accessors": [
    {
      "bufferView": 0,
      "componentType": 5125,
      "count": 1872,
      "type": "SCALAR"
    },
    {
      "bufferView": 1,
      "componentType": 5126,
      "count": 758,
      "max": [
        0.0109505010768771,
        0.0280341003090143,
        0.0150469010695815
      ],
      "min": [
        -0.0109505010768771,
        0.0,
        -0.0150469010695815
      ],
      "type": "VEC3"
    },
    {
      "bufferView": 2,
      "componentType": 5126,
      "count": 758,
      "type": "VEC3"
    },
    {
      "bufferView": 3,
      "componentType": 5126,
      "count": 758,
      "type": "VEC4"
    },
    {
      "bufferView": 4,
      "componentType": 5126,
      "count": 758,
      "type": "VEC2"
    }
  ],
  "asset": {
    "generator": "Adobe Substance 3D Painter 8.1.2",
    "version": "2.0"
  },
  "bufferViews": [
    {
      "buffer": 0,
      "byteLength": 7488,
      "target": 34963
    },
    {
      "buffer": 0,
      "byteLength": 9096,
      "byteOffset": 7488,
      "target": 34962
    },
    {
      "buffer": 0,
      "byteLength": 9096,
      "byteOffset": 16584,
      "target": 34962
    },
    {
      "buffer": 0,
      "byteLength": 12128,
      "byteOffset": 25680,
      "target": 34962
    },
    {
      "buffer": 0,
      "byteLength": 6064,
      "byteOffset": 37808,
      "target": 34962
    }
  ],
  "buffers": [
    {
      "byteLength": 43872,
      "uri": "panchos2.bin"
    }
  ],
  "images": [
    {
      "uri": "Default_baseColor.png"
    },
    {
      "uri": "Default_occlusionRoughnessMetallic.png"
    },
    {
      "uri": "Default_normal.png"
    },
    {
      "uri": "Default_emissive.png"
    }
  ],
  "materials": [
    {
      "alphaMode": "OPAQUE",
      "emissiveFactor": [
        1.0,
        1.0,
        1.0
      ],
      "emissiveTexture": {
        "index": 3
      },
      "name": "Default",
      "normalTexture": {
        "index": 2
      },
      "occlusionTexture": {
        "index": 1
      },
      "pbrMetallicRoughness": {
        "baseColorTexture": {
          "index": 0
        },
        "metallicRoughnessTexture": {
          "index": 1
        }
      }
    }
  ],
  "meshes": [
    {
      "name": "mesh_panchos2",
      "primitives": [
        {
          "attributes": {
            "NORMAL": 2,
            "POSITION": 1,
            "TANGENT": 3,
            "TEXCOORD_0": 4
          },
          "indices": 0,
          "material": 0,
          "mode": 4
        }
      ]
    }
  ],
  "nodes": [
    {
      "children": [
        1
      ],
      "name": "panchos2.obj"
    },
    {
      "children": [
        2
      ],
      "name": "mesh_panchos2"
    },
    {
      "mesh": 0,
      "name": "mesh_panchos2"
    }
  ],
  "samplers": [
    {
      "magFilter": 9729,
      "minFilter": 9985,
      "wrapS": 10497,
      "wrapT": 10497
    }
  ],
  "scene": 0,
  "scenes": [
    {
      "name": "Scene",
      "nodes": [
        0
      ]
    }
  ],
  "textures": [
    {
      "sampler": 0,
      "source": 0
    },
    {
      "sampler": 0,
      "source": 1
    },
    {
      "sampler": 0,
      "source": 2
    },
    {
      "sampler": 0,
      "source": 3
    }
  ]
}