{"asset":{"generator":"Modov11.2","version":"2.0"},"scene":0,"scenes":[{"nodes":[0,1]}],"nodes":[{"name":"arbol (2)","mesh":0},{"name":"Camera","matrix":[1.0,0.0,0.0,0.0,0.0,0.9961947202682495,-0.08715574443340302,0.0,0.0,0.08715574443340302,0.9961947202682495,0.0,0.0,0.75,4.0,1.0],"camera":0}],"meshes":[{"primitives":[{"indices":1,"mode":4,"material":1,"attributes":{"POSITION":0,"NORMAL":2,"TEXCOORD_0":3}},{"indices":5,"mode":4,"material":2,"attributes":{"POSITION":4,"NORMAL":6,"TEXCOORD_0":7}}]}],"buffers":[{"byteLength":2072,"uri":"arbol.bin"}],"bufferViews":[{"buffer":0,"byteLength":432},{"buffer":0,"byteLength":312,"byteOffset":432},{"buffer":0,"byteLength":432,"byteOffset":744},{"buffer":0,"byteLength":288,"byteOffset":1176},{"buffer":0,"byteLength":192,"byteOffset":1464},{"buffer":0,"byteLength":96,"byteOffset":1656},{"buffer":0,"byteLength":192,"byteOffset":1752},{"buffer":0,"byteLength":128,"byteOffset":1944}],"accessors":[{"bufferView":0,"type":"VEC3","componentType":5126,"count":36,"min":[-0.014850000850856305,0.026730000972747804,-0.014850000850856305],"max":[0.014850000850856305,0.08910000324249268,0.014850000850856305]},{"bufferView":1,"type":"SCALAR","componentType":5125,"count":78},{"bufferView":2,"type":"VEC3","componentType":5126,"count":36},{"bufferView":3,"type":"VEC2","componentType":5126,"count":36},{"bufferView":4,"type":"VEC3","componentType":5126,"count":16,"min":[-0.004455000162124634,-0.004777251277118921,-0.004455000162124634],"max":[0.004455000162124634,0.026730000972747804,0.004455000162124634]},{"bufferView":5,"type":"SCALAR","componentType":5125,"count":24},{"bufferView":6,"type":"VEC3","componentType":5126,"count":16},{"bufferView":7,"type":"VEC2","componentType":5126,"count":16}],"materials":[{"pbrMetallicRoughness":{"metallicFactor":0.5,"roughnessFactor":0.5}},{"name":"copa","emissiveFactor":[0.0,0.0,0.0],"alphaMode":"OPAQUE","doubleSided":false,"pbrMetallicRoughness":{"baseColorFactor":[0.07242751121520996,1.0,0.0,1.0],"metallicFactor":1.0,"roughnessFactor":1.0}},{"name":"tronco","emissiveFactor":[0.0,0.0,0.0],"alphaMode":"OPAQUE","doubleSided":false,"pbrMetallicRoughness":{"baseColorFactor":[0.6139240264892578,0.161342591047287,0.18532809615135194,1.0],"metallicFactor":1.0,"roughnessFactor":1.0}}],"cameras":[{"name":"Camera","type":"perspective","perspective":{"znear":0.01,"yfov":0.8726}}]}