{"asset":{"generator":"Modov11.2","version":"2.0"},"scene":0,"scenes":[{"nodes":[0,1,2]}],"nodes":[{"name":"posta_m","mesh":0},{"name":"Camera","matrix":[1.0,0.0,0.0,0.0,0.0,0.9961947202682495,-0.08715574443340302,0.0,0.0,0.08715574443340302,0.9961947202682495,0.0,0.0,0.75,4.0,1.0],"camera":0},{"name":"Texture Group"}],"meshes":[{"primitives":[{"indices":1,"mode":4,"material":1,"attributes":{"POSITION":0,"NORMAL":2,"TEXCOORD_0":3}}]}],"buffers":[{"byteLength":837184,"uri":"exp.bin"}],"bufferViews":[{"buffer":0,"byteLength":184920},{"buffer":0,"byteLength":344064,"byteOffset":184920},{"buffer":0,"byteLength":184920,"byteOffset":528984},{"buffer":0,"byteLength":123280,"byteOffset":713904}],"accessors":[{"bufferView":0,"type":"VEC3","componentType":5126,"count":15410,"min":[-0.20071300864219666,-0.1985171139240265,-0.20071300864219666],"max":[0.20071300864219666,0.1985171139240265,0.20071300864219666]},{"bufferView":1,"type":"SCALAR","componentType":5125,"count":86016},{"bufferView":2,"type":"VEC3","componentType":5126,"count":15410},{"bufferView":3,"type":"VEC2","componentType":5126,"count":15410}],"materials":[{"pbrMetallicRoughness":{"metallicFactor":0.5,"roughnessFactor":0.5}},{"name":"Default","emissiveFactor":[0.0,0.0,0.0],"alphaMode":"OPAQUE","doubleSided":false,"pbrMetallicRoughness":{"baseColorFactor":[1.0,1.0,1.0,1.0],"metallicFactor":1.0,"roughnessFactor":1.0}}],"cameras":[{"name":"Camera","type":"perspective","perspective":{"znear":0.01,"yfov":0.8726}}]}