{"asset":{"generator":"Khronos glTF Spline I/O v0.0.1","version":"2.0"},"scenes":[{"nodes":[0]}],"nodes":[{"name":"","children":[1,2,3,4,5,6,7,8,9,10,11]},{"name":"Cylinder","matrix":[1,0,0,0,0,2.220446049250332e-16,1.0000000000000087,0,0,-1.0000000000000087,2.220446049250332e-16,0,-88,-15.999999999999957,281.97393338179677,1],"mesh":0},{"name":"Directional Light","translation":[18.54182746897986,196.55020093492345,491.48717671575287],"rotation":[-0.18961021471810435,0.008923757344561642,-0.046156934615785634,0.9807333329790946],"extensions":{"KHR_lights_punctual":{"light":0}}},{"name":"Torus","matrix":[1,0,0,0,0,1,0,0,0,0,1,0,-21.79164795187559,0,0,1],"mesh":1},{"name":"Shape","matrix":[1,0,0,0,0,1,-6.123233995736766e-17,0,0,6.123233995736766e-17,1,0,341.6601562499999,83.9765625,0,1],"mesh":2},{"name":"Default Camera","camera":0,"translation":[421.5966165805065,-431.223911870293,801.181802960937],"rotation":[0.19402383949000052,0.23238466744508454,-0.04736662683900558,0.9518973257173751],"children":[12]},{"name":"Rectangle 6","matrix":[1,0,0,0,0,1,0,0,0,0,1,0,-700.640352576578,343.7732461477317,-621.7177979444532,1],"mesh":3},{"name":"Rectangle 5","matrix":[1,0,0,0,0,1,0,0,0,0,1,0,-458.86701035997964,411.0544972305579,-435.91730390769953,1],"mesh":4},{"name":"Rectangle 4","matrix":[1,0,0,0,0,1,0,0,0,0,1,0,40.65655762019381,47,-435.91730390769953,1],"mesh":5},{"name":"Rectangle 3","matrix":[1,0,0,0,0,1,0,0,0,0,1,0,-348.7443833184552,-162.2262664519276,-167.3626971650084,1],"mesh":6},{"name":"Rectangle 2","matrix":[1,0,0,0,0,1,0,0,0,0,1,0,242.604127802133,207,-273.3860648864429,1],"mesh":7},{"name":"Personal Camera","camera":1,"translation":[-420.87696727968546,59.64554859841181,1429.1522821380331],"rotation":[-0.032686854548581404,-0.1404215422520694,-0.004638451022023008,0.9895412294509948]},{"name":"Default Directional Light","translation":[850000,1300000,1000000],"rotation":[-0.45895513091666534,0.1367267597249462,-0.25064115022945466,0.8413352451859125],"extensions":{"KHR_lights_punctual":{"light":1}}}],"cameras":[{"type":"orthographic","orthographic":{"xmag":1387,"ymag":915,"zfar":50000,"znear":-50000}},{"type":"perspective","perspective":{"aspectRatio":1.515846994535519,"yfov":0.7853981633974483,"znear":5,"zfar":500000}}],"meshes":[{"primitives":[{"attributes":{"POSITION":1,"NORMAL":2,"TEXCOORD_0":3},"indices":0}]},{"primitives":[{"attributes":{"POSITION":5,"NORMAL":6,"TEXCOORD_0":7},"indices":4}]},{"primitives":[{"attributes":{"POSITION":9,"NORMAL":10,"TEXCOORD_0":11},"indices":8}]},{"primitives":[{"attributes":{"POSITION":13,"NORMAL":14,"TEXCOORD_0":15},"indices":12}]},{"primitives":[{"attributes":{"POSITION":17,"NORMAL":18,"TEXCOORD_0":19},"indices":16}]},{"primitives":[{"attributes":{"POSITION":21,"NORMAL":22,"TEXCOORD_0":23},"indices":20}]},{"primitives":[{"attributes":{"POSITION":25,"NORMAL":26,"TEXCOORD_0":27},"indices":24}]},{"primitives":[{"attributes":{"POSITION":29,"NORMAL":30,"TEXCOORD_0":31},"indices":28}]}],"buffers":[{"uri":"data:application/octet-stream;base64,","byteLength":13952},{"uri":"data:application/octet-stream;base64,","byteLength":212064},{"uri":"data:application/octet-stream;base64,","byteLength":44},{"uri":"data:application/octet-stream;base64,","byteLength":70800},{"uri":"data:application/octet-stream;base64,","byteLength":70800},{"uri":"data:application/octet-stream;base64,","byteLength":70800},{"uri":"data:application/octet-stream;base64,","byteLength":70800},{"uri":"data:application/octet-stream;base64,","byteLength":70800}],"bufferViews":[{"buffer":0,"byteOffset":0,"byteLength":1536,"target":34963},{"buffer":0,"byteOffset":1536,"byteLength":4656,"target":34962},{"buffer":0,"byteOffset":6192,"byteLength":4656,"target":34962},{"buffer":0,"byteOffset":10848,"byteLength":3104,"target":34962},{"buffer":1,"byteOffset":0,"byteLength":56064,"target":34963},{"buffer":1,"byteOffset":56064,"byteLength":58500,"target":34962},{"buffer":1,"byteOffset":114564,"byteLength":58500,"target":34962},{"buffer":1,"byteOffset":173064,"byteLength":39000,"target":34962},{"buffer":2,"byteOffset":0,"byteLength":12,"target":34963},{"buffer":2,"byteOffset":12,"byteLength":12,"target":34962},{"buffer":2,"byteOffset":24,"byteLength":12,"target":34962},{"buffer":2,"byteOffset":36,"byteLength":8,"target":34962},{"buffer":3,"byteOffset":0,"byteLength":7824,"target":34963},{"buffer":3,"byteOffset":7824,"byteLength":20992,"target":34962},{"buffer":3,"byteOffset":28816,"byteLength":20992,"target":34962},{"buffer":3,"byteOffset":49808,"byteLength":20992,"target":34962},{"buffer":4,"byteOffset":0,"byteLength":7824,"target":34963},{"buffer":4,"byteOffset":7824,"byteLength":20992,"target":34962},{"buffer":4,"byteOffset":28816,"byteLength":20992,"target":34962},{"buffer":4,"byteOffset":49808,"byteLength":20992,"target":34962},{"buffer":5,"byteOffset":0,"byteLength":7824,"target":34963},{"buffer":5,"byteOffset":7824,"byteLength":20992,"target":34962},{"buffer":5,"byteOffset":28816,"byteLength":20992,"target":34962},{"buffer":5,"byteOffset":49808,"byteLength":20992,"target":34962},{"buffer":6,"byteOffset":0,"byteLength":7824,"target":34963},{"buffer":6,"byteOffset":7824,"byteLength":20992,"target":34962},{"buffer":6,"byteOffset":28816,"byteLength":20992,"target":34962},{"buffer":6,"byteOffset":49808,"byteLength":20992,"target":34962},{"buffer":7,"byteOffset":0,"byteLength":7824,"target":34963},{"buffer":7,"byteOffset":7824,"byteLength":20992,"target":34962},{"buffer":7,"byteOffset":28816,"byteLength":20992,"target":34962},{"buffer":7,"byteOffset":49808,"byteLength":20992,"target":34962}],"accessors":[{"bufferView":0,"byteOffset":0,"componentType":5123,"count":768,"type":"SCALAR","min":[0],"max":[387]},{"bufferView":1,"byteOffset":0,"componentType":5126,"count":388,"type":"VEC3","min":[-50,-96.26657104492188,-50],"max":[50,96.26657104492188,50]},{"bufferView":2,"byteOffset":0,"componentType":5126,"count":388,"type":"VEC3","min":[-1,-1,-1],"max":[1,1,1]},{"bufferView":3,"byteOffset":0,"componentType":5126,"count":388,"type":"VEC2","min":[0,0],"max":[1,1]},{"bufferView":4,"byteOffset":0,"componentType":5123,"count":28032,"type":"SCALAR","min":[1],"max":[4873]},{"bufferView":5,"byteOffset":0,"componentType":5126,"count":4875,"type":"VEC3","min":[-282.9859313964844,-282.9436950683594,-70.75050354003906],"max":[282.87335205078125,283,70.75050354003906]},{"bufferView":6,"byteOffset":0,"componentType":5126,"count":4875,"type":"VEC3","min":[-0.9999502897262573,-1,-1],"max":[1,1,1]},{"bufferView":7,"byteOffset":0,"componentType":5126,"count":4875,"type":"VEC2","min":[0,0],"max":[1,1]},{"bufferView":8,"byteOffset":0,"componentType":5125,"count":3,"type":"SCALAR","min":[0],"max":[0]},{"bufferView":9,"byteOffset":0,"componentType":5126,"count":1,"type":"VEC3","min":[0,0,0],"max":[0,0,0]},{"bufferView":10,"byteOffset":0,"componentType":5126,"count":1,"type":"VEC3","min":[0,0,0],"max":[0,0,0]},{"bufferView":11,"byteOffset":0,"componentType":5126,"count":1,"type":"VEC2","min":[0,0],"max":[0,0]},{"bufferView":12,"byteOffset":0,"componentType":5125,"count":1956,"type":"SCALAR","min":[0],"max":[655]},{"bufferView":13,"byteOffset":0,"componentType":5126,"count":656,"type":"VEC3","min":[-160,-110.5,0],"max":[160,110.5,24]},{"bufferView":14,"byteOffset":0,"componentType":5126,"count":656,"type":"VEC3","min":[-1,-1,-1],"max":[1,1,1]},{"bufferView":15,"byteOffset":0,"componentType":5126,"count":656,"type":"VEC2","min":[0,0],"max":[1,1]},{"bufferView":16,"byteOffset":0,"componentType":5125,"count":1956,"type":"SCALAR","min":[0],"max":[655]},{"bufferView":17,"byteOffset":0,"componentType":5126,"count":656,"type":"VEC3","min":[-160,-110.5,0],"max":[160,110.5,24]},{"bufferView":18,"byteOffset":0,"componentType":5126,"count":656,"type":"VEC3","min":[-1,-1,-1],"max":[1,1,1]},{"bufferView":19,"byteOffset":0,"componentType":5126,"count":656,"type":"VEC2","min":[0,0],"max":[1,1]},{"bufferView":20,"byteOffset":0,"componentType":5125,"count":1956,"type":"SCALAR","min":[0],"max":[655]},{"bufferView":21,"byteOffset":0,"componentType":5126,"count":656,"type":"VEC3","min":[-263,-114,0],"max":[263,114,24]},{"bufferView":22,"byteOffset":0,"componentType":5126,"count":656,"type":"VEC3","min":[-1,-1,-1],"max":[1,1,1]},{"bufferView":23,"byteOffset":0,"componentType":5126,"count":656,"type":"VEC2","min":[0,0],"max":[1,1]},{"bufferView":24,"byteOffset":0,"componentType":5125,"count":1956,"type":"SCALAR","min":[0],"max":[655]},{"bufferView":25,"byteOffset":0,"componentType":5126,"count":656,"type":"VEC3","min":[-220,-109.5,0],"max":[220,109.5,22]},{"bufferView":26,"byteOffset":0,"componentType":5126,"count":656,"type":"VEC3","min":[-1,-1,-1],"max":[1,1,1]},{"bufferView":27,"byteOffset":0,"componentType":5126,"count":656,"type":"VEC2","min":[0,0],"max":[1,1]},{"bufferView":28,"byteOffset":0,"componentType":5125,"count":1956,"type":"SCALAR","min":[0],"max":[655]},{"bufferView":29,"byteOffset":0,"componentType":5126,"count":656,"type":"VEC3","min":[-207,-160,0],"max":[207,160,24]},{"bufferView":30,"byteOffset":0,"componentType":5126,"count":656,"type":"VEC3","min":[-1,-1,-1],"max":[1,1,1]},{"bufferView":31,"byteOffset":0,"componentType":5126,"count":656,"type":"VEC2","min":[0,0],"max":[1,1]}],"extensions":{"KHR_lights_punctual":{"lights":[{"type":"directional","name":"Directional Light","color":[1,1,1],"intensity":0.6},{"type":"directional","name":"Default Directional Light","color":[1,1,1],"intensity":0.75}]}},"extensionsUsed":["KHR_lights_punctual"]}