{
  "accessors": [
    {
      "bufferView": 0,
      "componentType": 5125,
      "count": 2100,
      "type": "SCALAR"
    },
    {
      "bufferView": 1,
      "componentType": 5126,
      "count": 754,
      "max": [
        0.00842310115695,
        0.0186866000294685,
        0.0124476011842489
      ],
      "min": [
        -0.00842310115695,
        -6.83097168803215e-05,
        -0.0124476011842489
      ],
      "type": "VEC3"
    },
    {
      "bufferView": 2,
      "componentType": 5126,
      "count": 754,
      "type": "VEC3"
    },
    {
      "bufferView": 3,
      "componentType": 5126,
      "count": 754,
      "type": "VEC4"
    },
    {
      "bufferView": 4,
      "componentType": 5126,
      "count": 754,
      "type": "VEC2"
    }
  ],
  "asset": {
    "generator": "Adobe Substance 3D Painter 8.1.0",
    "version": "2.0"
  },
  "bufferViews": [
    {
      "buffer": 0,
      "byteLength": 8400,
      "target": 34963
    },
    {
      "buffer": 0,
      "byteLength": 9048,
      "byteOffset": 8400,
      "target": 34962
    },
    {
      "buffer": 0,
      "byteLength": 9048,
      "byteOffset": 17448,
      "target": 34962
    },
    {
      "buffer": 0,
      "byteLength": 12064,
      "byteOffset": 26496,
      "target": 34962
    },
    {
      "buffer": 0,
      "byteLength": 6032,
      "byteOffset": 38560,
      "target": 34962
    }
  ],
  "buffers": [
    {
      "byteLength": 44592,
      "uri": "panchera.bin"
    }
  ],
  "images": [
    {
      "uri": "m_panch_baseColor.png"
    },
    {
      "uri": "m_panch_occlusionRoughnessMetallic.png"
    },
    {
      "uri": "m_panch_normal.png"
    },
    {
      "uri": "m_panch_emissive.png"
    }
  ],
  "materials": [
    {
      "alphaMode": "OPAQUE",
      "emissiveFactor": [
        1.0,
        1.0,
        1.0
      ],
      "emissiveTexture": {
        "index": 3
      },
      "name": "m_panch",
      "normalTexture": {
        "index": 2
      },
      "occlusionTexture": {
        "index": 1
      },
      "pbrMetallicRoughness": {
        "baseColorTexture": {
          "index": 0
        },
        "metallicRoughnessTexture": {
          "index": 1
        }
      }
    }
  ],
  "meshes": [
    {
      "name": "panchera",
      "primitives": [
        {
          "attributes": {
            "NORMAL": 2,
            "POSITION": 1,
            "TANGENT": 3,
            "TEXCOORD_0": 4
          },
          "indices": 0,
          "material": 0,
          "mode": 4
        }
      ]
    }
  ],
  "nodes": [
    {
      "children": [
        1
      ],
      "name": "panchera2.obj"
    },
    {
      "children": [
        2
      ],
      "name": "panchera"
    },
    {
      "mesh": 0,
      "name": "panchera"
    }
  ],
  "samplers": [
    {
      "magFilter": 9729,
      "minFilter": 9985,
      "wrapS": 10497,
      "wrapT": 10497
    }
  ],
  "scene": 0,
  "scenes": [
    {
      "name": "Scene",
      "nodes": [
        0
      ]
    }
  ],
  "textures": [
    {
      "sampler": 0,
      "source": 0
    },
    {
      "sampler": 0,
      "source": 1
    },
    {
      "sampler": 0,
      "source": 2
    },
    {
      "sampler": 0,
      "source": 3
    }
  ]
}