{"asset":{"generator":"Modov11.2","version":"2.0"},"scene":0,"scenes":[{"nodes":[0,1]}],"nodes":[{"name":"mesh_piso","mesh":0},{"name":"Camera","matrix":[1.0,0.0,0.0,0.0,0.0,0.9961947202682495,-0.08715574443340302,0.0,0.0,0.08715574443340302,0.9961947202682495,0.0,0.0,0.75,4.0,1.0],"camera":0}],"meshes":[{"primitives":[{"indices":1,"mode":4,"material":1,"attributes":{"POSITION":0,"NORMAL":2,"TEXCOORD_0":3}}]}],"buffers":[{"byteLength":69792,"uri":"piso.bin"}],"bufferViews":[{"buffer":0,"byteLength":15372},{"buffer":0,"byteLength":28800,"byteOffset":15372},{"buffer":0,"byteLength":15372,"byteOffset":44172},{"buffer":0,"byteLength":10248,"byteOffset":59544}],"accessors":[{"bufferView":0,"type":"VEC3","componentType":5126,"count":1281,"min":[-2.0,0.0,-2.0],"max":[2.0,4.0,2.0]},{"bufferView":1,"type":"SCALAR","componentType":5125,"count":7200},{"bufferView":2,"type":"VEC3","componentType":5126,"count":1281},{"bufferView":3,"type":"VEC2","componentType":5126,"count":1281}],"materials":[{"pbrMetallicRoughness":{"metallicFactor":0.5,"roughnessFactor":0.5}},{"name":"m_piso","emissiveFactor":[0.0,0.0,0.0],"alphaMode":"OPAQUE","doubleSided":false,"pbrMetallicRoughness":{"baseColorFactor":[0.07730650901794434,0.2689873278141022,0.12049980461597443,1.0],"metallicFactor":1.0,"roughnessFactor":1.0}}],"cameras":[{"name":"Camera","type":"perspective","perspective":{"znear":0.01,"yfov":0.8726}}]}