{"asset":{"generator":"Modov11.2","version":"2.0"},"scene":0,"scenes":[{"nodes":[0,1,2,3,4]}],"nodes":[{"name":"piso","matrix":[-4.371138828673793e-8,5.3531012400248659e-24,-1.0,0.0,1.232595164407831e-31,1.0,5.3531012400248659e-24,0.0,1.0,1.232595164407831e-31,-4.371138828673793e-8,0.0,0.0,0.0,0.0,1.0],"mesh":0},{"name":"pantalla (2)","mesh":1},{"name":"auto","matrix":[1.0,0.0,0.0,0.0,0.0,1.0,0.0,0.0,0.0,0.0,1.0,0.0,0.0,0.0,0.13600000739097596,1.0],"mesh":2},{"name":"Camera","matrix":[1.0,0.0,0.0,0.0,0.0,0.9961947202682495,-0.08715573698282242,0.0,0.0,0.08715573698282242,0.9961947202682495,0.0,0.0,0.75,4.0,1.0],"camera":0},{"name":"pantalla","children":[5]},{"name":"Texture Group (pantalla)"}],"meshes":[{"primitives":[{"indices":1,"mode":4,"material":1,"attributes":{"POSITION":0,"NORMAL":2,"TEXCOORD_0":3}}]},{"primitives":[{"indices":5,"mode":4,"material":2,"attributes":{"POSITION":4,"NORMAL":6,"TEXCOORD_0":7,"TEXCOORD_1":8}}]},{"primitives":[{"indices":10,"mode":4,"material":3,"attributes":{"POSITION":9,"NORMAL":11,"TEXCOORD_0":12}}]}],"buffers":[{"byteLength":99864,"uri":"web.bin"}],"bufferViews":[{"buffer":0,"byteLength":15372},{"buffer":0,"byteLength":28800,"byteOffset":15372},{"buffer":0,"byteLength":15372,"byteOffset":44172},{"buffer":0,"byteLength":10248,"byteOffset":59544},{"buffer":0,"byteLength":3744,"byteOffset":69792},{"buffer":0,"byteLength":4008,"byteOffset":73536},{"buffer":0,"byteLength":3744,"byteOffset":77544},{"buffer":0,"byteLength":2496,"byteOffset":81288},{"buffer":0,"byteLength":2496,"byteOffset":83784},{"buffer":0,"byteLength":3816,"byteOffset":86280},{"buffer":0,"byteLength":3408,"byteOffset":90096},{"buffer":0,"byteLength":3816,"byteOffset":93504},{"buffer":0,"byteLength":2544,"byteOffset":97320}],"accessors":[{"bufferView":0,"type":"VEC3","componentType":5126,"count":1281,"min":[-2.0,0.0,-2.0],"max":[2.0,4.0,2.0]},{"bufferView":1,"type":"SCALAR","componentType":5125,"count":7200},{"bufferView":2,"type":"VEC3","componentType":5126,"count":1281},{"bufferView":3,"type":"VEC2","componentType":5126,"count":1281},{"bufferView":4,"type":"VEC3","componentType":5126,"count":312,"min":[-0.09000000357627869,0.0,-0.019999999552965165],"max":[0.09000000357627869,0.11999999731779099,0.019999999552965165]},{"bufferView":5,"type":"SCALAR","componentType":5125,"count":1002},{"bufferView":6,"type":"VEC3","componentType":5126,"count":312},{"bufferView":7,"type":"VEC2","componentType":5126,"count":312},{"bufferView":8,"type":"VEC2","componentType":5126,"count":312},{"bufferView":9,"type":"VEC3","componentType":5126,"count":318,"min":[-0.008273099549114704,-0.00006831001519458368,-0.012447601184248925],"max":[0.008273099549114704,0.018686579540371896,0.012447601184248925]},{"bufferView":10,"type":"SCALAR","componentType":5125,"count":852},{"bufferView":11,"type":"VEC3","componentType":5126,"count":318},{"bufferView":12,"type":"VEC2","componentType":5126,"count":318}],"materials":[{"pbrMetallicRoughness":{"metallicFactor":0.5,"roughnessFactor":0.5}},{"name":"m_piso","emissiveFactor":[0.0,0.0,0.0],"alphaMode":"OPAQUE","doubleSided":false,"pbrMetallicRoughness":{"baseColorFactor":[0.07730650901794434,0.2689873278141022,0.12049980461597443,1.0],"metallicFactor":1.0,"roughnessFactor":1.0}},{"name":"m_pantalla","emissiveFactor":[0.0,0.0,0.0],"alphaMode":"OPAQUE","doubleSided":false,"emissiveTexture":{"index":1,"texCoord":0},"pbrMetallicRoughness":{"baseColorFactor":[1.0,1.0,1.0,1.0],"metallicFactor":1.0,"roughnessFactor":1.0,"baseColorTexture":{"index":0,"texCoord":0}}},{"name":"m_panch","emissiveFactor":[0.0,0.0,0.0],"alphaMode":"OPAQUE","doubleSided":false,"pbrMetallicRoughness":{"baseColorFactor":[1.0,1.0,1.0,1.0],"metallicFactor":1.0,"roughnessFactor":1.0}}],"textures":[{"name":"7  (pantalla)","sampler":0,"source":0},{"name":"7_ilum  (pantalla)","sampler":1,"source":1}],"images":[{"mimeType":"image/png","uri":"7.png"},{"mimeType":"image/png","uri":"7_ilum.png"}],"samplers":[{"wrapS":10497,"wrapT":10497},{"wrapS":10497,"wrapT":10497}],"cameras":[{"name":"Camera","type":"perspective","perspective":{"znear":0.01,"yfov":0.8726}}]}